PathFileType	4	(X/Y/Z)	C:/Users/opensim2020/Desktop/walking_exp_matlab/subject02_walking10_straight_04.trc																																																																																																																															
DataRate	CameraRate	NumFrames	NumMarkers	Units	OrigDataRate	OrigDataStartFrame	OrigNumFrames																																																																																																																											
100	100	5	43	mm	100	3214	260																																																																																																																											
Frame#	Time	LFHD			RFHD			LBHD			RBHD			C7			T10			CLAV			STRN			RBAK			LSHO			LUPA			LELB			LFRM			LWRA			LWRB			LFIN			RSHO			RUPA			RELB			RFRM			RWRA			RWRB			RFIN			LASI			RASI			LPSI			RPSI			LTHI			LKNE			LTIB			LANK			LHEE			LTOE			RTHI			RKNE			RTIB			RANK			RHEE			RTOE			*39			*40			*41			*42		
		X1	Y1	Z1	X2	Y2	Z2	X3	Y3	Z3	X4	Y4	Z4	X5	Y5	Z5	X6	Y6	Z6	X7	Y7	Z7	X8	Y8	Z8	X9	Y9	Z9	X10	Y10	Z10	X11	Y11	Z11	X12	Y12	Z12	X13	Y13	Z13	X14	Y14	Z14	X15	Y15	Z15	X16	Y16	Z16	X17	Y17	Z17	X18	Y18	Z18	X19	Y19	Z19	X20	Y20	Z20	X21	Y21	Z21	X22	Y22	Z22	X23	Y23	Z23	X24	Y24	Z24	X25	Y25	Z25	X26	Y26	Z26	X27	Y27	Z27	X28	Y28	Z28	X29	Y29	Z29	X30	Y30	Z30	X31	Y31	Z31	X32	Y32	Z32	X33	Y33	Z33	X34	Y34	Z34	X35	Y35	Z35	X36	Y36	Z36	X37	Y37	Z37	X38	Y38	Z38	X39	Y39	Z39	X40	Y40	Z40	X41	Y41	Z41	X42	Y42	Z42	X43	Y43	Z43
																																																																																																																																		
163	1.62	570.51636	1731.04688	1102.22974	568.41571	1696.81018	1241.25488	438.37619	1661.69897	1084.63757	423.60724	1626.09656	1223.41113	383.21472	1506.94714	1142.20691	343.49283	1229.3606	1145.57617	525.02313	1445.06238	1126.39551	585.81329	1276.1449	1129.02893	334.37585	1327.15601	1200.91162	453.12509	1492.34558	959.54266	457.84583	1294.22864	872.07385	469.59995	1153.61243	854.8092	504.88113	1026.55945	835.64001	591.81403	918.54144	851.82202	542.1449	908.90607	827.51111	577.14465	853.68933	816.20441	465.17166	1467.24805	1326.36536	434.25394	1273.48315	1403.38538	444.06171	1128.89722	1417.55005	463.67105	1011.89612	1439.24622	502.06927	881.22632	1424.72217	454.98688	882.87726	1456.11243	485.92184	816.01074	1459.69568	569.75122	967.61554	998.18164	606.07062	973.96753	1246.50183	370.71851	1012.32715	1097.68884	379.62228	1014.85205	1214.45313	450.65283	665.66211	933.24744	396.7886	481.43698	941.70166	247.64232	363.49738	949.6969	121.98848	178.36369	971.87537	91.34808	179.14653	1031.01636	193.06259	37.09454	956.89703	597.02081	672.25946	1322.35815	629.94208	466.09085	1275.63684	601.44299	278.98749	1285.23059	587.92865	88.15557	1247.93188	550.37939	35.61295	1195.35132	742.40759	33.95514	1251.6261	469.12961	1788.79883	1197.05945	-2846.04175	1034.14819	3356.96484	NaN	NaN	NaN	NaN	NaN	NaN
164	1.63	579.02667	1732.16101	1104.10608	576.86511	1698.16931	1243.1908	446.95178	1662.828	1086.53198	432.13126	1627.34851	1225.26782	391.69504	1508.35449	1144.88831	351.96625	1230.56226	1148.78503	533.42657	1446.30823	1128.52258	594.36176	1277.52356	1131.20288	343.02682	1328.5957	1203.97119	461.24866	1493.39832	961.8584	465.70972	1295.01831	875.17975	474.79745	1154.11035	859.32202	506.5907	1026.35193	839.77008	590.9801	915.7406	855.33655	541.00897	907.90784	831.25684	574.04938	851.50018	820.10999	473.8978	1469.08765	1328.47534	443.78992	1275.21716	1406.08496	453.93155	1130.89001	1420.63	474.11545	1013.76587	1441.96924	512.85059	883.17041	1427.40137	465.84842	884.72192	1458.86218	496.93781	818.00073	1462.43628	577.41736	969.33655	1000.26849	614.89703	975.20398	1248.68665	378.71558	1013.77557	1101.34827	388.90378	1016.40479	1217.95667	463.67081	665.46173	934.42224	413.73151	481.38333	941.16003	264.18448	365.55759	949.16785	134.82944	183.8923	972.26935	104.86005	185.23425	1031.45117	202.15541	41.09439	954.82166	602.33954	672.04858	1323.34473	633.80957	465.88074	1276.67651	603.9549	278.92136	1286.10803	588.25	88.14729	1248.11072	550.16052	35.8859	1195.69556	742.46045	33.89377	1251.55017	477.5755	1790.11438	1198.8811	-2846.11865	1034.10693	3356.92871	NaN	NaN	NaN	NaN	NaN	NaN
165	1.64	587.62732	1733.4574	1105.76147	585.24255	1699.60754	1244.96069	455.64304	1664.09253	1088.40833	440.62814	1628.64355	1227.12073	400.21622	1509.36035	1146.97241	360.30249	1231.87854	1152.08704	541.6925	1447.5188	1130.57751	602.70459	1278.68811	1133.2843	351.79242	1329.98193	1206.88855	469.18079	1494.36121	964.14142	472.65488	1295.60669	878.2132	479.11832	1154.53125	863.67462	508.93549	1026.33179	843.8797	590.36896	913.52838	858.72906	539.4035	907.005	834.87354	571.08917	849.12292	824.08246	482.98007	1470.78369	1330.57373	453.22452	1277.1394	1409.38208	464.09512	1132.52551	1423.16077	484.73013	1015.50916	1444.66711	523.86212	885.13684	1429.98511	476.95847	886.51819	1461.54663	508.34338	819.93286	1465.18372	584.3653	971.06366	1001.88892	623.50397	976.15851	1250.42261	386.41818	1015.08655	1105.14172	398.01584	1017.96954	1221.55591	475.72568	665.32507	935.36505	430.77173	481.66687	940.71906	280.87598	367.71985	948.55743	148.43436	188.81259	973.66254	119.57195	190.0117	1033.51514	214.44415	45.94086	951.427	607.61755	671.64069	1324.7196	637.30548	465.62393	1277.69385	606.4494	278.86575	1286.83997	588.60083	88.18422	1248.26868	550.23724	35.71648	1195.70068	742.58582	33.85789	1251.53235	485.91095	1791.47656	1200.74756	-2845.1499	1034.09546	3360.26196	NaN	NaN	NaN	NaN	NaN	NaN
166	1.65	595.95734	1734.66736	1107.31165	593.58636	1701.12634	1246.55347	463.92664	1664.96423	1090.02075	448.98093	1630.09155	1228.85974	408.70975	1510.57397	1149.12024	368.49451	1233.21021	1155.31982	549.95197	1448.72693	1132.41919	610.3584	1279.54968	1135.03467	360.47244	1331.29626	1209.76807	476.7269	1495.2074	966.20959	479.02658	1295.98779	881.33203	484.0257	1155.03833	867.60248	510.46466	1026.34949	847.59741	589.48926	911.23322	862.06482	538.8291	906.34998	838.31018	567.83459	847.26917	827.97668	492.31146	1472.30981	1332.63611	462.87308	1278.78662	1411.94189	474.19223	1134.18103	1425.90601	495.50101	1017.3833	1447.17798	535.07538	887.03387	1432.48328	488.4429	888.07208	1463.94727	520.09479	821.89056	1467.9696	591.07062	972.84778	1002.89447	631.90741	976.77234	1251.85205	393.99554	1016.2016	1109.02283	406.8071	1019.53088	1225.23389	487.9455	665.91437	936.1994	447.79709	482.3186	940.44263	297.37408	370.23203	948.60126	163.15646	193.12395	975.64459	135.2905	192.90605	1036.12305	228.74045	50.84437	948.414	612.81366	671.59015	1325.96582	640.52795	465.36075	1278.64746	608.75061	278.70502	1287.3866	589.24054	87.97083	1248.3324	550.18921	36.07726	1195.8894	742.52423	33.79727	1251.51013	494.33853	1792.7334	1202.02417	-2845.29443	1034.09937	3360.36548	NaN	NaN	NaN	NaN	NaN	NaN
167	1.66	604.73682	1736.17139	1109.26807	601.89874	1702.70447	1248.00928	472.38229	1666.11731	1091.52307	457.39798	1631.53394	1230.49646	417.00714	1512.15112	1151.85779	376.5542	1234.64539	1158.5625	558.12653	1449.93127	1134.20386	618.26666	1280.5957	1136.56165	369.00806	1332.79749	1212.83252	484.21478	1496.05042	968.07788	485.73511	1296.53467	884.28033	488.92834	1155.51428	871.24042	512.07153	1026.30762	851.1814	588.56989	909.12372	865.26349	537.36224	905.82251	841.56689	564.66254	845.51465	831.74652	501.59607	1474.00842	1334.55151	472.62662	1280.44983	1414.48889	484.47305	1135.65527	1428.21606	506.28384	1019.0545	1449.97021	546.68896	889.04254	1434.98718	499.93228	889.8338	1466.6189	532.34625	823.74408	1470.47534	597.31964	974.53021	1003.60352	640.19012	977.12732	1252.89087	401.4086	1017.24304	1112.92297	415.32706	1021.16095	1228.8363	500.20535	667.0661	937.10553	464.56848	483.48001	940.41602	313.78854	373.03223	949.60168	178.94499	196.3732	977.9176	151.9458	194.3157	1038.99976	245.1557	55.68481	944.94672	618.34442	671.81989	1327.36157	643.43109	465.0752	1279.46643	610.64386	278.56473	1287.86194	589.07898	88.17913	1248.40002	550.18243	36.47672	1195.48022	742.60822	33.76091	1251.48633	502.58069	1794.01147	1203.08838	-2845.18018	1034.14966	3360.28247	NaN	NaN	NaN	NaN	NaN	NaN
